<svg width="1921" height="666" viewBox="0 0 1921 666" fill="none" xmlns="http://www.w3.org/2000/svg">
<path d="M0.339966 51.9402C156.64 27.4202 146.88 13.2403 234.94 28.2403C256.44 31.9003 390.59 60.2403 465.7 61.7703C479 62.0403 651.4 64.9502 655.17 65.6402C699.22 72.7302 795.39 79.1803 840.6 78.7303C844.96 78.5603 849.3 78.3903 853.63 78.2403C870.97 77.6603 888.29 77.4503 905.44 78.9803C909.95 79.1403 914.44 79.4202 918.94 79.8902C925.52 80.5702 931.93 81.7003 938.25 83.0603C944.57 84.4203 950.8 85.9802 957 87.4102C994.32 97.2902 1033.08 100.31 1073.46 96.5403C1082.31 96.0603 1091.21 95.6103 1100.25 95.2703C1110.58 94.2603 1120.92 93.2604 1130.55 89.8304C1133.29 88.9404 1136.03 87.9903 1138.76 87.0503C1156.05 81.0803 1173.78 75.8303 1191.52 70.7303C1209.72 65.4903 1228.98 60.7303 1248.63 61.5603C1268.63 62.4003 1287.96 66.9704 1307.9 68.1004C1324.58 69.0504 1341.45 67.5002 1357.53 63.9202C1360.29 63.3102 1362.99 62.6302 1365.66 61.9002C1368.32 61.1702 1370.96 60.3804 1373.58 59.5804C1411.57 46.9504 1450.21 29.5404 1488.74 18.3404C1553.07 -0.359636 1561.04 -0.849742 1601.34 0.730258C1627.23 1.75026 1695.66 32.5302 1712.5 35.4002C1831.61 55.6802 1858.28 46.3203 1920.34 38.7803V665.67H0.339966" fill="black"/>
</svg>
